# xmcd CD database file
#
# Track frame offsets:
#	150
#	17542
#	37432
#	54509
#	70285
#	87257
#	102733
#	118779
#	131326
#	149571
#	169121
#	191456
#
# Disc length: 2794 seconds
#
# Revision: 0
# Processed by: cddbd v1.4PL0 Copyright (c) Steve Scherf et al.
# Submitted via: CDex 1.40Beta9
#
DISCID=b10ae80c
DTITLE=Andy Anderson - If I'd Known I'd Live This Long
DYEAR=2003
DGENRE=Country
TTITLE0=If I'd Known I'd Live This Long
TTITLE1=Pour Me A Drink
TTITLE2=Byron Bay
TTITLE3=A You Shaped Space
TTITLE4=Cut A long Story Short
TTITLE5=I need You (to get over you)
TTITLE6=Refugee Spark
TTITLE7=When You Dont Know Your Arse
TTITLE8=Please Stay
TTITLE9=Road To Your Heart
TTITLE10=We'll Never Have This Time Again
TTITLE11=Come Ye Disconsolate
EXTD=YEAR: 2003 ID3G: 2
EXTT0=
EXTT1=
EXTT2=
EXTT3=
EXTT4=
EXTT5=
EXTT6=
EXTT7=
EXTT8=
EXTT9=
EXTT10=
EXTT11=
PLAYORDER=
